<svg xmlns="http://www.w3.org/2000/svg" viewBox="0 0 292.7 88.2" enable-background="new 0 0 292.7 88.2"><style type="text/css">.st0{fill:#202A2B;} .st1{fill:#F2853B;}</style><title>CarShop-Logo</title><path d="M56.2 78.9c-1.7 0-3.4-.3-5-1-4.8-2.1-7.9-6.9-7.9-12.2 0-1.8.3-3.5 1-5.1 1.3-3.1 3.8-5.6 6.9-7 1.6-.7 3.3-1 5-1 1.7 0 3.4.3 4.9 1 1.6.6 3 1.6 4.2 2.8.1.2.2.4.2.6 0 .2-.2.4-.4.5-.2.1-.5.2-.8.1-.3 0-.5-.1-.7-.3-1-1-2.1-1.8-3.4-2.4-1.3-.5-2.6-.8-4-.8s-2.8.3-4.1.9c-1.3.6-2.5 1.4-3.5 2.5s-1.8 2.3-2.3 3.7c-1.1 2.9-1.1 6.1 0 9 .5 1.4 1.3 2.6 2.3 3.7 1 1 2.2 1.9 3.5 2.5 1.3.6 2.8.9 4.2.9 1.6 0 3.1-.3 4.5-1s2.7-1.7 3.7-3c.2-.2.4-.3.6-.4.3-.1.5 0 .8.1.6.3.7.6.4 1.1-1.2 1.5-2.7 2.7-4.4 3.5-1.9.9-3.8 1.3-5.7 1.3zM92.4 61.4c-.3 0-.5-.1-.7-.2-.2-.1-.3-.3-.3-.5 0-.9-.2-1.8-.7-2.6-.5-.8-1.1-1.5-1.9-2.1-.9-.6-1.8-1.1-2.8-1.4-2.2-.7-4.6-.7-6.8 0-1 .3-1.9.8-2.8 1.4-.8.6-1.4 1.3-1.9 2.1-.4.8-.7 1.7-.7 2.6 0 .2-.1.4-.3.5-.4.3-1 .3-1.5 0-.2-.1-.3-.3-.3-.5 0-1.1.3-2.2.8-3.1.6-1 1.4-1.9 2.3-2.6 1-.8 2.2-1.3 3.4-1.7 2.7-.8 5.7-.8 8.4 0 1.2.4 2.4 1 3.4 1.7.9.7 1.7 1.6 2.3 2.6.6.9.8 2 .8 3.1 0 .2-.1.4-.3.5.1.1-.1.2-.4.2zM72.8 78.9c-.3 0-.5-.1-.7-.2-.2-.1-.3-.3-.3-.5V60.5c0-.2.1-.4.3-.5.4-.3 1-.3 1.5 0 .2.1.3.3.3.5v17.6c0 .2-.1.4-.3.5-.3.2-.5.3-.8.3zm19.4-11.1h-19c-.3 0-.5-.1-.7-.2-.3-.2-.4-.6-.2-.8.1-.1.1-.2.2-.2.2-.2.5-.2.7-.2h19c.3 0 .5.1.7.2.3.2.4.6.2.8-.1.1-.1.2-.2.2-.2.2-.5.2-.7.2zm.2 11.1c-.3 0-.5-.1-.7-.2-.2-.1-.3-.3-.3-.5V60.5c0-.2.1-.4.3-.5.4-.3 1-.3 1.5 0 .2.1.3.3.3.5v17.6c0 .2-.1.4-.3.5-.3.2-.5.3-.8.3zM112.4 54.1h-11.3c-.3 0-.5-.1-.7-.2-.2-.1-.3-.3-.3-.5s.1-.4.3-.5c.2-.1.5-.2.7-.2h11.3c.3 0 .5.1.8.2.2.1.3.3.3.5s-.1.4-.3.5c-.3.1-.5.2-.8.2zm7.2 24.8c-.3 0-.7-.1-.9-.4L109.4 66c-.2-.2-.2-.4-.1-.6.1-.2.3-.4.5-.5.2-.1.5-.1.8-.1.2.1.5.2.6.4l9.4 12.5c.2.1.2.4.1.6-.1.2-.3.4-.5.5-.2 0-.4.1-.6.1zm-7.2-12.5h-2.1c-.3 0-.5-.1-.7-.2-.2-.1-.3-.3-.3-.5s.1-.4.3-.6c.2-.2.5-.2.7-.2h2.1c.3 0 .6.1.8.2.2.1.3.3.3.6 0 .2-.1.4-.3.5-.3.2-.5.2-.8.2zm-.2 0c-.3 0-.5-.1-.7-.2-.2-.1-.3-.3-.3-.5s.1-.4.3-.6c.2-.2.5-.2.7-.2 1 0 2-.1 2.9-.4.8-.3 1.6-.6 2.3-1.2.6-.5 1.2-1 1.6-1.7.8-1.3.8-2.9 0-4.2-.4-.7-.9-1.2-1.6-1.7-.7-.5-1.5-.9-2.3-1.2-.9-.3-1.9-.4-2.9-.4-.3 0-.5-.1-.7-.2-.2-.1-.3-.3-.3-.5s.1-.4.3-.5c.2-.1.5-.2.7-.2 1.3 0 2.5.2 3.7.5 1.1.3 2.1.8 3 1.5.8.6 1.5 1.3 2 2.2 1 1.7 1 3.7 0 5.4-.5.9-1.2 1.6-2 2.2-.9.7-1.9 1.2-3 1.5-1.2.3-2.4.4-3.7.4zM156.9 78.9c-1.6 0-3.3-.2-4.9-.6-1.4-.3-2.7-.8-4-1.5-1-.5-2-1.3-2.7-2.2-.6-.7-1-1.7-1-2.7 0-.2.1-.4.3-.6.4-.3 1-.3 1.5 0 .2.1.3.3.3.6 0 .8.3 1.5.8 2.1.6.7 1.4 1.3 2.2 1.7 1.1.5 2.2.9 3.3 1.1 2.7.6 5.5.6 8.1 0 1.2-.2 2.3-.6 3.4-1.1.9-.4 1.6-1 2.3-1.7.5-.6.8-1.3.8-2.1 0-1.4-.9-2.5-2.6-3.5-2.5-1.2-5.2-1.8-8-2.1-3.2-.3-6.2-1.2-9.1-2.5-2.2-1.2-3.3-2.7-3.3-4.5 0-1 .4-1.9 1-2.7.7-.9 1.6-1.6 2.7-2.2 1.3-.7 2.6-1.2 4-1.5 3.1-.7 6.3-.7 9.4-.1 1.3.3 2.6.7 3.8 1.3 1 .5 2 1.1 2.8 1.9.7.6 1.2 1.5 1.4 2.4.1.2 0 .4-.2.5-.2.2-.4.3-.6.3-.3.1-.5 0-.8-.1-.2-.1-.4-.3-.4-.5-.2-.7-.6-1.4-1.1-1.9-.7-.6-1.5-1.1-2.3-1.5-1-.4-2.1-.8-3.2-1-1.2-.2-2.5-.4-3.8-.4-1.4 0-2.7.1-4.1.4-1.2.2-2.3.6-3.3 1.1-.9.4-1.6 1-2.2 1.7-.5.6-.8 1.3-.8 2.1s.3 1.6.9 2.2c.7.7 1.5 1.2 2.4 1.6 1.1.5 2.2.9 3.4 1.1 1.3.3 2.5.5 3.8.6 8.3 1.2 12.4 3.6 12.4 7.1 0 1-.4 1.9-1 2.7-.7.9-1.7 1.7-2.7 2.2-1.3.7-2.6 1.2-4 1.5-1.7.6-3.3.8-4.9.8zm11.5-18.8c-.3 0-.5-.1-.7-.2-.2-.1-.3-.3-.3-.5 0-.1 0-.2 0-.3 0-.1 0-.2-.1-.3-.1-.2 0-.4.2-.5.2-.2.4-.3.7-.3.3-.1.5 0 .8.1.2.1.4.3.4.5.1.3.1.6.1.9 0 .2-.1.4-.3.5-.2.1-.5.2-.8.1zM177.1 78.9c-.3 0-.5-.1-.8-.2-.2-.1-.3-.3-.3-.6V53.3c0-.5.4-.8 1-.8.3 0 .5.1.7.2.2.1.3.3.3.5V78c0 .2-.1.4-.3.6-.1.2-.4.3-.6.3zm18.1-12.5h-17.4c-.3 0-.5-.1-.7-.2-.3-.2-.4-.6-.2-.8.1-.1.1-.2.2-.2.2-.1.5-.2.7-.2h17.4c.3 0 .5.1.7.2.3.2.4.6.2.8-.1.1-.1.2-.2.2-.2.2-.4.2-.7.2zm1.1 12.5c-.3 0-.5-.1-.7-.2-.2-.1-.3-.3-.3-.6V53.3c0-.2.1-.4.3-.5.2-.1.5-.2.7-.2.3 0 .5.1.7.2.2.1.3.3.3.5v24.8c0 .2-.1.4-.3.6-.2.1-.5.2-.7.2zM217.1 78.8c-1.7 0-3.5-.3-5.1-1-1.6-.7-3-1.6-4.2-2.8-1.2-1.2-2.1-2.6-2.8-4.2-.7-1.6-1-3.4-1-5.1 0-1.8.3-3.5 1-5.1.7-1.6 1.6-3 2.8-4.2 1.2-1.2 2.6-2.2 4.2-2.8 3.2-1.4 6.9-1.4 10.1 0 1.5.7 3 1.6 4.1 2.8 1.2 1.2 2.1 2.6 2.8 4.2.7 1.6 1 3.4 1 5.1 0 1.8-.3 3.5-1 5.1-.7 1.6-1.6 3-2.8 4.2-1.2 1.2-2.6 2.2-4.1 2.8-1.6.7-3.3 1.1-5 1zm0-24.7c-1.5 0-2.9.3-4.3.9-1.3.6-2.5 1.4-3.5 2.5s-1.8 2.3-2.4 3.7c-1.2 2.9-1.2 6.1 0 9.1.6 1.4 1.4 2.6 2.4 3.7s2.2 1.9 3.5 2.5c2.7 1.2 5.8 1.2 8.5 0 1.3-.6 2.5-1.4 3.5-2.5s1.8-2.3 2.4-3.7c1.2-2.9 1.2-6.1 0-9-.6-1.4-1.4-2.6-2.4-3.7s-2.2-1.9-3.5-2.5c-1.3-.7-2.8-1-4.2-1zM248.5 54.1h-11.3c-.3 0-.5-.1-.7-.2-.2-.1-.3-.3-.3-.5s.1-.4.3-.6c.2-.2.5-.2.7-.2h11.3c.3 0 .5.1.7.2.2.1.3.3.3.6 0 .2-.1.4-.3.5-.2.1-.4.2-.7.2zm-11.3 24.8c-.3 0-.5-.1-.7-.2-.2-.1-.3-.3-.3-.6V65.7c0-.2.1-.4.3-.5.2-.2.5-.2.7-.2.3 0 .5.1.7.2.2.1.3.3.3.5v12.4c0 .2-.1.4-.3.6-.2.1-.5.2-.7.2zm11.3-12.5h-11.3c-.3 0-.5-.1-.7-.2-.3-.2-.4-.5-.2-.8.1-.1.1-.2.2-.2.2-.2.5-.2.7-.2h11.3c.3 0 .5.1.7.2.3.2.4.6.2.8-.1.1-.1.2-.2.2-.2.2-.4.2-.7.2zm-.2 0c-.3 0-.6-.1-.8-.2-.3-.2-.4-.6-.2-.8.1-.1.1-.2.2-.2.2-.2.5-.2.8-.2 1 0 1.9-.1 2.9-.4.8-.3 1.6-.7 2.4-1.2.6-.5 1.2-1 1.6-1.7.4-.6.6-1.4.6-2.1 0-.7-.2-1.5-.6-2.1-.4-.7-1-1.3-1.6-1.7-.7-.5-1.5-.9-2.4-1.2-.9-.3-1.9-.4-2.9-.4-.3 0-.6-.1-.8-.2-.2-.1-.3-.3-.3-.5s.1-.4.3-.6c.2-.2.5-.2.8-.2 1.3 0 2.5.2 3.7.5 1.1.3 2.1.8 3 1.5.8.6 1.5 1.3 2 2.2.5.8.8 1.7.8 2.7 0 1-.3 1.9-.8 2.7-.5.9-1.2 1.6-2 2.2-.9.7-1.9 1.2-3 1.5-1.1.3-2.4.4-3.7.4zM146.8 88.2h-53c5.3-.8 10.6-1.3 15.9-1.3h73.5c5.3 0 10.6.4 15.9 1.3h-52.3z" class="st0"/><path d="M146.5 0H93.7S96 22.7 100 28.3s46.5 13.3 46.5 13.3S189 33.9 193 28.3 199.4 0 199.4 0h-52.9zM91.2 2.5c0-.9-.3-1.7-.3-2.5h-89s4.6 3.7 13.6 4.3h75.9c0-.5-.2-1.2-.2-1.8zM93.4 16.7h-54s4.7 3 13.3 4.2h41.7c-.4-1.4-.6-2.8-1-4.2zM97.5 28.7c-.7-.9-1.2-1.9-1.6-3h-34c3.3 1.9 6.9 2.9 10.7 3" class="st1"/><path d="M92 8.3H22.6s2 2.7 13 4.3h57.1c-.3-1.4-.5-2.8-.7-4.3zM201.7 2.5c0-.9.3-1.7.3-2.5h89s-4.7 3.7-13.7 4.3h-75.8c0-.5.2-1.2.2-1.8zM199.5 16.7h54s-4.7 3-13.3 4.2h-41.7c.4-1.4.6-2.8 1-4.2zM195.4 28.7c.7-.9 1.2-1.9 1.6-3h34c-3.3 1.9-6.9 2.9-10.7 3" class="st1"/><path d="M200.9 8.3h69.4s-2 2.7-13 4.3h-57.1c.3-1.4.6-2.8.7-4.3z" class="st1"/></svg>